HIERARCHY
ROOT Hips
{
	OFFSET 0.00000 0.00000 0.00000
	CHANNELS 6 Xposition Yposition Zposition Zrotation Yrotation Xrotation 
	JOINT LHipJoint
	{
		OFFSET 0 0 0
		CHANNELS 3 Zrotation Yrotation Xrotation
		JOINT LeftUpLeg
		{
			OFFSET 1.37959 -1.78713 0.86582
			CHANNELS 3 Zrotation Yrotation Xrotation
			JOINT LeftLeg
			{
				OFFSET 2.54611 -6.99539 0.00000
				CHANNELS 3 Zrotation Yrotation Xrotation
				JOINT LeftFoot
				{
					OFFSET 2.59951 -7.14211 0.00000
					CHANNELS 3 Zrotation Yrotation Xrotation
					JOINT LeftToeBase
					{
						OFFSET 0.18493 -0.50810 1.96120
						CHANNELS 3 Zrotation Yrotation Xrotation
						End Site
						{
							OFFSET 0.00000 -0.00000 1.02054
						}
					}
				}
			}
		}
	}
	JOINT RHipJoint
	{
		OFFSET 0 0 0
		CHANNELS 3 Zrotation Yrotation Xrotation
		JOINT RightUpLeg
		{
			OFFSET -1.33564 -1.78713 0.86582
			CHANNELS 3 Zrotation Yrotation Xrotation
			JOINT RightLeg
			{
				OFFSET -2.52705 -6.94302 0.00000
				CHANNELS 3 Zrotation Yrotation Xrotation
				JOINT RightFoot
				{
					OFFSET -2.55964 -7.03257 0.00000
					CHANNELS 3 Zrotation Yrotation Xrotation
					JOINT RightToeBase
					{
						OFFSET -0.25804 -0.70896 2.12109
						CHANNELS 3 Zrotation Yrotation Xrotation
						End Site
						{
							OFFSET -0.00000 -0.00000 1.11821
						}
					}
				}
			}
		}
	}
	JOINT LowerBack
	{
		OFFSET 0 0 0
		CHANNELS 3 Zrotation Yrotation Xrotation
		JOINT Spine
		{
			OFFSET -0.02031 2.24248 -0.18900
			CHANNELS 3 Zrotation Yrotation Xrotation
			JOINT Spine1
			{
				OFFSET 0.08342 2.24689 -0.03799
				CHANNELS 3 Zrotation Yrotation Xrotation
				JOINT Neck
				{
					OFFSET 0 0 0
					CHANNELS 3 Zrotation Yrotation Xrotation
					JOINT Neck1
					{
						OFFSET -0.11607 1.55844 0.24628
						CHANNELS 3 Zrotation Yrotation Xrotation
						JOINT Head
						{
							OFFSET 0.06877 1.60174 -0.17013
							CHANNELS 3 Zrotation Yrotation Xrotation
							End Site
							{
								OFFSET 0.03358 1.61266 -0.08543
							}
						}
					}
				}
				JOINT LeftShoulder
				{
					OFFSET 0 0 0
					CHANNELS 3 Zrotation Yrotation Xrotation
					JOINT LeftArm
					{
						OFFSET 3.47537 0.55866 -0.72348
						CHANNELS 3 Zrotation Yrotation Xrotation
						JOINT LeftForeArm
						{
							OFFSET 5.38154 -0.00000 0.00000
							CHANNELS 3 Zrotation Yrotation Xrotation
							JOINT LeftHand
							{
								OFFSET 3.33312 -0.00000 0.00000
								CHANNELS 3 Zrotation Yrotation Xrotation
								JOINT LeftFingerBase
								{
									OFFSET 0 0 0
									CHANNELS 3 Zrotation Yrotation Xrotation
									JOINT LeftHandIndex1
									{
										OFFSET 0.71079 -0.00000 0.00000
										CHANNELS 3 Zrotation Yrotation Xrotation
										End Site
										{
											OFFSET 0.57306 -0.00000 0.00000
										}
									}
								}
								JOINT LThumb
								{
									OFFSET 0 0 0
									CHANNELS 3 Zrotation Yrotation Xrotation
									End Site
									{
										OFFSET 0.58181 -0.00000 0.58181
									}
								}
							}
						}
					}
				}
				JOINT RightShoulder
				{
					OFFSET 0 0 0
					CHANNELS 3 Zrotation Yrotation Xrotation
					JOINT RightArm
					{
						OFFSET -3.27844 0.90739 -0.35708
						CHANNELS 3 Zrotation Yrotation Xrotation
						JOINT RightForeArm
						{
							OFFSET -5.16954 -0.00000 0.00000
							CHANNELS 3 Zrotation Yrotation Xrotation
							JOINT RightHand
							{
								OFFSET -3.38287 -0.00000 0.00000
								CHANNELS 3 Zrotation Yrotation Xrotation
								JOINT RightFingerBase
								{
									OFFSET 0 0 0
									CHANNELS 3 Zrotation Yrotation Xrotation
									JOINT RightHandIndex1
									{
										OFFSET -0.81797 -0.00000 0.00000
										CHANNELS 3 Zrotation Yrotation Xrotation
										End Site
										{
											OFFSET -0.65947 -0.00000 0.00000
										}
									}
								}
								JOINT RThumb
								{
									OFFSET 0 0 0
									CHANNELS 3 Zrotation Yrotation Xrotation
									End Site
									{
										OFFSET -0.66953 -0.00000 0.66953
									}
								}
							}
						}
					}
				}
			}
		}
	}
}
MOTION
Frames: 11
Frame Time: .0083333
9.0056 17.9609 14.3639 0 0 0 0 0 0 -21 0 0 0 0 0 0 0 0 0 0 0 0 0 0 21 0 0 0 0 0 0 0 0 0 0 0 0 0 0 0 0 0 0 0 0 0 0 -16 0 0 21 0 0 11 0 0 0 -8 0 0 0 0 0 0 0 0 0 0 0 0 0 0 0 0 0 0 0 0 8 0 0 0 0 0 0 0 0 0 0 0 0 0 0 0 0 0
9.0056 17.9609 14.3639 -176.9960 1.7137 -179.4190 0.0000 0.0000 0.0000 -14.7394 -7.3397 -20.1113 2.2954 9.4559 27.2322 0.0012 -3.2367 -2.3274 0.0792 -1.8150 -4.9946 0.0000 0.0000 0.0000 20.3673 -0.8450 2.7231 -5.4869 -13.9120 42.8860 -0.0917 -7.3550 7.0196 -0.2855 -3.4366 9.4967 0.5941 3.6986 2.7590 0.0807 4.9609 0.4093 -0.4274 2.4816 -1.0791 -12.2844 -4.1122 -17.5729 4.6421 -4.2877 25.0573 3.0651 -2.8379 11.4578 0.0000 0.0000 0.0000 -88.1499 6.6294 6.1790 12.9996 -21.2866 -2.4531 -0.0000 -0.0000 13.3926 -5.5668 37.5864 -3.4022 -7.1250 0.0000 -0.0000 -46.8457 61.1973 -21.0142 0.0000 0.0000 0.0000 81.9864 15.8075 17.8304 -22.9419 34.0252 -7.1057 0.0000 -0.0000 -20.5566 -20.8496 31.0715 -11.1204 7.1250 -0.0000 -0.0000 6.0146 2.6727 6.3229
8.9685 17.9575 14.2250 -176.9920 1.7224 -179.6540 0.0000 0.0000 0.0000 -15.0923 -7.0596 -19.4086 2.2610 9.3899 27.0226 0.0132 -3.2403 -2.8952 0.2892 -3.4581 -9.5570 0.0000 0.0000 0.0000 20.1243 -0.8238 1.4155 -6.1026 -14.5271 45.3923 -0.1170 -8.3326 7.9442 -0.5343 -4.6836 13.0083 0.6775 3.7247 3.0364 0.0050 4.9998 0.3647 -0.5738 2.4994 -1.2654 -12.7873 -4.0745 -17.9843 5.4070 -4.3242 25.8702 3.4365 -2.8480 11.8835 0.0000 -0.0000 0.0000 -87.8031 6.4580 6.9041 13.1063 -21.4427 -2.4920 -0.0000 -0.0000 13.0933 -5.5412 37.5104 -3.3807 -7.1250 0.0000 -0.0000 -46.7263 61.1500 -20.8940 0.0000 -0.0000 0.0000 82.1221 16.0159 18.3179 -23.0312 34.1229 -7.1558 0.0000 -0.0000 -20.3353 -20.4153 31.3069 -10.9461 7.1250 -0.0000 -0.0000 6.2937 2.8243 6.6355
8.9259 17.9559 14.0833 -177.2260 1.6970 -180.0440 0.0000 0.0000 0.0000 -15.7065 -6.8020 -18.4275 2.2129 9.2960 26.7258 0.0261 -3.1515 -3.3869 0.2384 -3.1422 -8.6748 0.0000 0.0000 0.0000 19.5905 -0.8995 0.3057 -6.7243 -15.0953 47.8238 -0.0875 -9.1290 7.8897 -0.4396 -4.2542 11.7931 0.4971 3.6615 3.4192 0.0015 4.9156 0.4879 -0.4970 2.4597 -1.3689 -12.6780 -4.0321 -18.1026 4.9630 -4.1403 25.8312 3.2769 -2.8046 11.8624 -0.0000 0.0000 0.0000 -87.7413 6.1945 7.3848 13.3462 -21.7923 -2.5804 -0.0000 -0.0000 12.8774 -5.8041 37.1229 -3.5106 -7.1250 0.0000 -0.0000 -46.4843 60.8095 -20.3794 -0.0000 0.0000 0.0000 82.0596 16.5355 18.8875 -23.0795 34.1756 -7.1829 0.0000 -0.0000 -20.1332 -20.2902 31.5257 -10.9413 7.1250 -0.0000 -0.0000 6.3942 3.0212 6.7637
8.8822 17.9719 13.9359 -177.7750 1.6685 -180.3390 0.0000 0.0000 0.0000 -16.6352 -6.5660 -17.5001 2.1724 9.2162 26.4741 0.0396 -3.1018 -3.8747 0.1093 -2.1320 -5.8705 0.0000 0.0000 0.0000 18.6827 -1.1210 -0.9687 -7.3297 -15.6034 50.1106 -0.0146 -9.6698 7.0277 -0.1198 -2.2318 6.1467 -0.0107 3.5935 3.3685 -0.0374 4.8120 0.7394 -0.2379 2.4138 -1.1220 -12.0861 -4.0831 -17.5213 3.6507 -4.0243 24.8313 2.7008 -2.8137 11.3168 -0.0000 -0.0000 0.0000 -87.8494 5.8085 7.7902 13.7085 -22.3165 -2.7164 -0.0000 -0.0000 12.7072 -5.8550 37.2526 -3.5520 -7.1250 0.0000 -0.0000 -46.6917 60.8891 -20.5836 -0.0000 -0.0000 0.0000 81.9364 17.1833 19.5323 -23.1908 34.2967 -7.2455 0.0000 -0.0000 -20.0300 -19.8671 31.7556 -10.7677 7.1250 -0.0000 -0.0000 6.6646 3.1694 7.0698
8.8439 17.9919 13.7894 -178.1920 1.7324 -180.6130 0.0000 0.0000 0.0000 -17.3307 -6.3910 -16.5106 2.1319 9.1356 26.2205 0.0535 -2.9795 -4.3139 0.0045 -0.4316 -1.1859 0.0000 0.0000 0.0000 17.9984 -1.2419 -2.1583 -7.9083 -16.0514 52.2319 0.1005 -10.2288 5.3870 -0.0281 -1.0824 2.9755 -0.3836 3.6732 3.3286 -0.1239 4.9080 0.8387 -0.1173 2.4642 -1.0212 -12.5396 -3.9437 -17.9429 4.2277 -3.8660 25.6734 3.0172 -2.7585 11.7275 0.0000 0.0000 0.0000 -87.6474 5.4929 8.6655 13.9500 -22.6632 -2.8088 -0.0000 -0.0000 12.3958 -5.3529 37.5722 -3.2699 -7.1250 0.0000 -0.0000 -46.6314 61.2412 -20.9417 0.0000 0.0000 0.0000 81.9347 17.4972 19.8621 -23.2823 34.3961 -7.2971 0.0000 -0.0000 -19.7734 -18.5817 31.5202 -9.9682 7.1250 -0.0000 -0.0000 7.3626 2.6826 7.7623
8.8183 18.0022 13.6544 -178.5690 1.8054 -180.8550 0.0000 0.0000 0.0000 -17.9531 -5.9321 -15.7158 2.0980 9.0673 26.0062 0.0666 -3.1925 -4.7792 0.0017 0.2648 0.7276 0.0000 0.0000 0.0000 17.4962 -1.2048 -3.3309 -8.4559 -16.4445 54.1886 0.2184 -10.7511 3.4213 -0.0675 -1.6759 4.6109 -0.7424 3.7679 3.5424 -0.2770 5.0194 0.7937 -0.0979 2.5213 -1.2037 -12.5361 -4.0023 -17.6711 4.2547 -4.0443 25.8598 3.0010 -2.8571 11.7628 -0.0000 -0.0000 0.0000 -87.2437 5.1975 9.5304 14.1014 -22.8794 -2.8674 -0.0000 -0.0000 12.1213 -4.8946 37.2441 -2.9668 -7.1250 0.0000 -0.0000 -45.7976 61.1227 -20.3435 -0.0000 -0.0000 0.0000 82.0781 17.5910 20.2630 -23.4235 34.5487 -7.3771 0.0000 -0.0000 -19.7882 -18.0297 31.3558 -9.6130 7.1250 -0.0000 -0.0000 7.6562 2.4141 8.0429
8.7921 18.0180 13.5224 -179.1470 1.6878 -181.0060 0.0000 0.0000 0.0000 -18.8212 -5.6244 -14.9907 2.0731 9.0167 25.8474 0.0843 -3.4935 -5.3542 0.0067 0.5296 1.4552 0.0000 0.0000 0.0000 16.7388 -1.3834 -4.6891 -8.9687 -16.7875 55.9818 0.3154 -11.3426 1.7573 -0.2806 -3.4070 9.4140 -1.3409 3.7840 3.6157 -0.4592 5.0199 0.7994 0.0409 2.5251 -1.2733 -12.7800 -4.0551 -17.5270 4.6075 -4.1869 25.9377 3.1543 -2.9104 11.7912 0.0000 -0.0000 0.0000 -86.8828 4.8586 10.3314 14.3024 -23.1653 -2.9460 -0.0000 -0.0000 11.7685 -4.6286 36.9250 -2.7846 -7.1250 0.0000 -0.0000 -45.1577 60.9594 -19.8131 0.0000 -0.0000 0.0000 82.1604 17.8279 20.6647 -23.5024 34.6336 -7.4219 0.0000 -0.0000 -19.7353 -18.2776 31.8983 -9.9000 7.1250 -0.0000 -0.0000 7.5814 3.0057 8.0377
8.7599 18.0281 13.3926 -179.3630 1.3559 -181.2320 0.0000 0.0000 0.0000 -19.3262 -5.6955 -14.0606 2.0423 8.9537 25.6505 0.1006 -3.5219 -5.7875 0.0240 1.0010 2.7515 0.0000 0.0000 0.0000 16.3151 -1.8787 -5.9585 -9.4267 -17.0746 57.5545 0.4213 -12.1495 -0.0205 -0.5760 -4.8599 13.5094 -1.5127 3.7343 3.7228 -0.5385 4.9508 0.8850 0.0542 2.4931 -1.2518 -11.9751 -4.2462 -16.8421 3.4120 -4.4190 25.2111 2.5388 -3.0586 11.3551 -0.0000 0.0000 0.0000 -86.4891 4.4811 11.1130 14.6068 -23.5954 -3.0668 -0.0000 -0.0000 11.4088 -4.5514 36.8234 -2.7316 -7.1250 0.0000 -0.0000 -44.9621 60.9051 -19.6477 -0.0000 0.0000 0.0000 82.2987 18.2881 21.0656 -23.5377 34.6715 -7.4419 0.0000 -0.0000 -19.6056 -18.3632 32.0745 -9.9967 7.1250 -0.0000 -0.0000 7.5551 3.1989 8.0335
8.7267 18.0265 13.2690 -179.1730 0.8519 -181.3590 0.0000 0.0000 0.0000 -19.3951 -5.9963 -13.3028 2.0116 8.8902 25.4524 0.1116 -3.4419 -6.0461 0.0136 0.7541 2.0725 0.0000 0.0000 0.0000 16.3908 -2.4016 -7.2917 -9.8225 -17.3088 58.8933 0.5081 -12.7699 -1.9838 -0.7027 -5.3580 14.9325 -1.1986 3.6303 3.7439 -0.5171 4.8261 0.9466 -0.0896 2.4301 -1.1748 -11.9974 -4.2908 -16.9384 3.5332 -4.5265 25.4991 2.5697 -3.1094 11.4960 -0.0000 0.0000 0.0000 -86.1008 4.1472 12.1282 15.0361 -24.1964 -3.2407 -0.0000 -0.0000 10.9795 -4.5689 36.9373 -2.7493 -7.1250 0.0000 -0.0000 -45.1173 60.9831 -19.8166 -0.0000 0.0000 0.0000 82.4128 18.6658 21.5100 -23.6866 34.8311 -7.5268 0.0000 -0.0000 -19.1924 -18.4765 31.5912 -9.9285 7.1250 -0.0000 -0.0000 7.4310 2.7342 7.8421
8.6962 18.0249 13.1426 -179.2780 0.3947 -181.4040 0.0000 0.0000 0.0000 -19.7556 -6.2893 -12.6493 1.9925 8.8504 25.3286 0.1290 -3.3539 -6.4480 0.0172 0.8480 2.3306 0.0000 0.0000 0.0000 16.1806 -2.8135 -8.6211 -10.1470 -17.4917 59.9786 0.5340 -12.8634 -3.6220 -0.5565 -4.7786 13.2781 -1.2441 3.5152 3.6147 -0.5384 4.6734 0.9637 -0.0690 2.3538 -1.0858 -12.2354 -4.2565 -16.7048 3.8205 -4.5308 25.4647 2.7184 -3.1045 11.4497 -0.0000 0.0000 0.0000 -85.8577 3.8749 12.9168 15.3905 -24.6873 -3.3874 -0.0000 -0.0000 10.8592 -4.0193 37.1251 -2.4284 -7.1250 0.0000 -0.0000 -44.8388 61.2563 -19.9568 -0.0000 0.0000 0.0000 82.3832 18.9271 21.9930 -23.7722 34.9224 -7.5757 0.0000 -0.0000 -18.6605 -18.7629 31.5183 -10.0701 7.1250 -0.0000 -0.0000 7.2596 2.7151 7.6559
